<?xml version="1.0"?>
<svg xmlns="http://www.w3.org/2000/svg" viewBox="0 0 64 64" width="512" height="512"><g id="solid"><path d="M45.713,5.74a2.94,2.94,0,0,0-.175-.322c-.03-.049-.06-.1-.093-.145a3.169,3.169,0,0,0-.276-.335c-.021-.022-.039-.047-.06-.068a3.059,3.059,0,0,0-.4-.333c-.04-.027-.084-.05-.125-.076a3.065,3.065,0,0,0-.338-.184q-.083-.038-.168-.069a2.733,2.733,0,0,0-.36-.112c-.055-.014-.108-.03-.164-.04A2.941,2.941,0,0,0,43,4H41a3.006,3.006,0,0,0-2.829,2h7.645c-.012-.032-.018-.065-.03-.1C45.764,5.848,45.738,5.794,45.713,5.74Z"/><path d="M19.663,45.258l-2.1,3.941,4.427.59A5.986,5.986,0,0,0,19.663,45.258Z"/><path d="M43,13a3,3,0,0,0,3-3V8H40v2A3,3,0,0,0,43,13Z"/><path d="M23.727,52.039a8.015,8.015,0,1,1-4.878-9.505l.949-1.78a10,10,0,1,0,5.923,11.551Z"/><path d="M31.76,12.152,21.35,18.514A7.034,7.034,0,0,0,18.032,24H25V23a1,1,0,0,1,.658-.94l11-4a1,1,0,0,1,1.049.233l1,1A1,1,0,0,1,39,20v3h3V17.815a3,3,0,0,0-1.025-2.258l-3.316-2.9A4.979,4.979,0,0,0,31.76,12.152Z"/><path d="M46.662,45.017a6.135,6.135,0,1,0,1.825-.816l2.425,5.389-1.824.82Z"/><path d="M50,60a10,10,0,1,0-3.168-19.477l.824,1.829a8.068,8.068,0,1,1-1.82.83l-.826-1.835A9.992,9.992,0,0,0,50,60Z"/><path d="M17.9,44.313a6,6,0,1,0,3.832,7.46l-5.863-.782a1,1,0,0,1-.751-1.462Z"/><path d="M26,50a10,10,0,0,0-4.437-8.3l-.95,1.781A7.987,7.987,0,0,1,24,50c0,.019,0,.038,0,.057l1.987.265C25.987,50.214,26,50.109,26,50Z"/><path d="M31,55a2.989,2.989,0,0,0,2.963-2.637l4.037.5v-.332l-2.39-1.593-2-.4A2.988,2.988,0,0,0,31,49c-.065,0-.126.015-.19.019L25.231,36h6.962l.179.071a1,1,0,0,1,.626.991L32.3,48.24l2.842.569L36.7,36.351A2.768,2.768,0,0,0,36.716,36H42.6l.322.714-6.294,7.261,1.512,1.31,5.686-6.561.53,1.177,1.824-.82L42.546,31h2.525l4.071.582a1,1,0,0,1,.677.416l.7,1H52a2,2,0,0,1-2,2H47v2h3a4,4,0,0,0,0-8H46.186l-3.473-1.042A1,1,0,0,1,42,27V25H39v3.745a1.589,1.589,0,0,0,1.027,1.467,1.006,1.006,0,0,0,.061.2L41.7,34h-5.85a2.753,2.753,0,0,0-.511-.393L31.386,31.3,29.766,34H27.434l2.225-3.708L25.5,27.864A1,1,0,0,1,25,27V26H18v1.246a4.525,4.525,0,0,0,2.857,4.22l.308.123,1.568,3.661L20.52,39.4l1.765.942,1.458-2.735,5.228,12.2A2.991,2.991,0,0,0,31,55ZM23.79,32.639,27.193,34H24.374Z"/></g></svg>
