<svg id="Layer_1" enable-background="new 0 0 60 60" height="512" viewBox="0 0 60 60" width="512" xmlns="http://www.w3.org/2000/svg"><path d="m52.0100098 27.9900513c0-5.8800049-2.2900391-11.4000244-6.4500122-15.5400391-4.1400147-4.1599731-9.669983-6.4500122-15.5599976-6.4500122-10.9699707 0-20.289978 8.2400513-21.7600098 18.9400024 5.9000244.0800171 11.7000122-.8899536 17.2600098-2.9199829 2.8900146-1.0499878 6.0599976.2700195 7.3900146 3.0700073.0199585.039978.039978.0900269.0499878.1099854.7199707 1.5300293.7600098 3.2999878.1099854 4.8500366-.6300049 1.5499878-1.8999634 2.7600098-3.4599609 3.3200073-6.6700439 2.4299927-13.6000366 3.6499634-20.6400146 3.6499634-.3200073 0-.6400146-.0100098-.960022-.0200195v9.9700317c0 .3099976.1400146.5999756.3900146.789978.1699829.1400146.3900146.210022.6099854.210022.0800171 0 .1600342-.0100098.25-.0300293l42.0100097-10.6299438c.4500122-.1100464.7600098-.5100098.7600098-.9700317zm-11.6300049 1.7799682c-1.7600098 0-3.1900024-1.4299927-3.1900024-3.2000122 0-1.7599487 1.4299927-3.1900024 3.1900024-3.1900024s3.1900024 1.4300537 3.1900024 3.1900024c0 1.7700196-1.4299927 3.2000122-3.1900024 3.2000122z"/><path d="m50.7600098 41.9300537-39.9100342 10.0999756c-.539978.1300049-.8599854.6799927-.7299805 1.210022.1199951.4499511.5300293.7599487.9700318.7599487.0799561 0 .1699829-.0099487.25-.0299683l39.9099731-10.0999755c.539978-.1400146.8599854-.6800537.7299805-1.2200317-.1399536-.5299683-.6900025-.8499757-1.2199707-.7199708z"/><path d="m31.0820313 25.9581299c-.8652344-1.8398438-3.0131836-2.7441406-4.8950195-2.0585938-5.8565063 2.1346436-11.958374 3.1496582-18.1685791 3.03479-.0177612.3254395-.0284424.6694946-.0284424 1.0557251v7.0119019c7.1391602.1072388 14.1623535-1.0515137 20.9123535-3.5067139.0004883 0 .0009766-.0009766.0014648-.0009766 1.0541992-.3818359 1.871582-1.1650391 2.3012695-2.2050781.4301758-1.0390625.4013672-2.2207031-.0776367-3.2402344-.0107422-.0205078-.0004883-.0058594.0146484.0185547-.0219726-.0351562-.0424804-.071289-.0600585-.1093749z"/></svg>