<?xml version="1.0" encoding="iso-8859-1"?>
<!-- Generator: Adobe Illustrator 18.0.0, SVG Export Plug-In . SVG Version: 6.00 Build 0)  -->
<!DOCTYPE svg PUBLIC "-//W3C//DTD SVG 1.1//EN" "http://www.w3.org/Graphics/SVG/1.1/DTD/svg11.dtd">
<svg version="1.1" id="Capa_1" xmlns="http://www.w3.org/2000/svg" xmlns:xlink="http://www.w3.org/1999/xlink" x="0px" y="0px"
	 viewBox="0 0 330.647 330.647" style="enable-background:new 0 0 330.647 330.647;" xml:space="preserve">
<g>
	<path d="M83.236,112.572c-3.439-1.026-7.001-1.547-10.588-1.547c-18.632,0-35.779,13.852-41.699,33.685
		c-7.215,24.173,4.501,49.088,26.118,55.54c3.438,1.026,6.999,1.546,10.586,1.546c0.002,0,0.001,0,0.002,0
		c18.631,0,35.778-13.852,41.698-33.685C116.568,143.94,104.852,119.025,83.236,112.572z M101.687,165.824
		c-4.916,16.471-18.911,27.973-34.033,27.973c-2.813,0-5.604-0.408-8.3-1.212c-17.389-5.19-26.692-25.64-20.739-45.586
		c4.916-16.47,18.911-27.973,34.033-27.973c2.812,0,5.604,0.408,8.3,1.213C98.337,125.429,107.64,145.879,101.687,165.824z"/>
	<path d="M253.287,88.418c-25.62-3.337-50.912,4.439-70.151,21.399c-12.486-18.733-31.316-33.388-54.524-40.316
		c-9.342-2.789-18.978-4.202-28.639-4.202c-21.08,0-42.099,6.905-59.185,19.443c-17.662,12.961-30.318,30.936-36.601,51.982
		c-15.77,52.837,14.387,108.653,67.224,124.423c9.342,2.789,18.978,4.202,28.638,4.202c21.08,0,42.1-6.905,59.185-19.443
		c5.187-3.806,9.929-8.055,14.217-12.677c14.351,17.347,34.363,28.428,56.873,31.361c3.884,0.507,7.735,0.753,11.552,0.753
		c43.908-0.003,82.192-32.664,88.022-77.353C336.221,139.42,301.854,94.752,253.287,88.418z M126.323,77.167
		c28.65,8.551,50.046,29.903,59.821,55.946L45.571,91.156C61.285,79.64,80.603,73.298,99.972,73.298
		C108.858,73.298,117.724,74.6,126.323,77.167z M73.698,253.481c-28.65-8.551-50.046-29.903-59.821-55.946l140.573,41.957
		c-15.715,11.515-35.032,17.857-54.402,17.857C91.164,257.349,82.297,256.047,73.698,253.481z M161.926,233.374L10.953,188.313
		c-4.08-15.696-4.067-32.66,0.9-49.302c4.855-16.265,13.86-30.523,26.242-41.739l150.973,45.061c4.08,15.696,4.067,32.66-0.9,49.302
		C183.313,207.901,174.308,222.158,161.926,233.374z M321.964,186.956c-5.765,44.197-46.389,75.467-90.606,69.701
		c-20.943-2.729-39.504-13.218-52.618-29.621c7.658-9.757,13.453-20.914,17.094-33.112c8.007-26.829,4.167-54.422-8.464-77.155
		c17.632-16.085,41.103-23.514,64.883-20.419C296.447,102.114,327.719,142.76,321.964,186.956z"/>
	<path d="M269.783,114.19c-5.449,0-10.724,1.443-15.254,4.172c-7.729,4.658-12.815,12.568-14.324,22.274
		c-1.467,9.441,0.649,19.491,5.958,28.301c7.584,12.586,20.371,20.405,33.37,20.405c5.45,0,10.725-1.443,15.254-4.172
		c7.729-4.657,12.816-12.568,14.324-22.274c1.467-9.441-0.648-19.492-5.958-28.301C295.569,122.009,282.782,114.19,269.783,114.19z
		 M301.206,161.668c-1.138,7.324-4.884,13.237-10.548,16.65c-3.33,2.007-7.073,3.024-11.125,3.024
		c-10.212,0-20.373-6.335-26.519-16.534c-4.342-7.206-6.083-15.354-4.904-22.943c1.138-7.324,4.884-13.238,10.548-16.65
		c3.331-2.007,7.073-3.025,11.125-3.025c10.211,0,20.373,6.335,26.519,16.534C300.643,145.93,302.385,154.078,301.206,161.668z"/>
	<path d="M284.463,144.994c0.954-3.121,0.846-6.762-0.574-10.243c-2.262-5.544-7.277-9.269-12.48-9.269
		c-1.392,0-2.744,0.264-4.021,0.784c-6.162,2.515-8.788,10.413-5.853,17.606c1.399,3.429,3.853,6.159,6.751,7.745
		c-0.283,0.623-0.542,1.263-0.741,1.939c-1.11,3.755-0.841,7.98,0.758,11.897c2.648,6.493,8.489,10.855,14.532,10.855
		c1.597,0,3.146-0.302,4.607-0.898c7.126-2.908,10.136-12.106,6.709-20.504C292.227,150.188,288.613,146.605,284.463,144.994z
		 M270.412,133.674c0.311-0.127,0.646-0.191,0.997-0.191c1.651,0,3.924,1.474,5.074,4.291c1.226,3.004,0.538,6.357-1.471,7.177
		c-0.311,0.127-0.646,0.191-0.996,0.191c-1.651,0-3.924-1.474-5.074-4.292C267.716,137.847,268.403,134.493,270.412,133.674z
		 M284.42,168.004c-0.496,0.203-1.029,0.306-1.584,0.306c-2.783,0-5.714-2.417-7.126-5.877c-0.9-2.208-1.08-4.617-0.492-6.608
		c0.291-0.984,1.043-2.742,2.818-3.466c0.496-0.203,1.029-0.306,1.584-0.306c2.783,0,5.714,2.417,7.126,5.877
		C288.475,162.17,287.411,166.784,284.42,168.004z"/>
	<polygon points="59.203,133.467 72.262,137.268 59.763,180.21 67.445,182.445 82.178,131.823 61.439,125.786 	"/>
</g>
<g>
</g>
<g>
</g>
<g>
</g>
<g>
</g>
<g>
</g>
<g>
</g>
<g>
</g>
<g>
</g>
<g>
</g>
<g>
</g>
<g>
</g>
<g>
</g>
<g>
</g>
<g>
</g>
<g>
</g>
</svg>
